<?xml version="1.0" encoding="utf-8"?>
<!-- Generator: Adobe Illustrator 18.1.0, SVG Export Plug-In . SVG Version: 6.00 Build 0)  -->
<!DOCTYPE svg PUBLIC "-//W3C//DTD SVG 1.1//EN" "http://www.w3.org/Graphics/SVG/1.1/DTD/svg11.dtd">
<svg version="1.1" id="Layer_1" xmlns="http://www.w3.org/2000/svg" xmlns:xlink="http://www.w3.org/1999/xlink" x="0px" y="0px"
	 viewBox="167.3 308.6 625.9 83.7" enable-background="new 167.3 308.6 625.9 83.7" xml:space="preserve">
<g>
	<g>
		
			<linearGradient id="SVGID_1_" gradientUnits="userSpaceOnUse" x1="-5.654569e-06" y1="700.0003" x2="1.0001" y2="700.0003" gradientTransform="matrix(60.9834 0 0 60.9834 167.4181 -42322.7617)">
			<stop  offset="0" style="stop-color:#9352A0"/>
			<stop  offset="0.2861" style="stop-color:#884E9F"/>
			<stop  offset="0.8336" style="stop-color:#6E429A"/>
			<stop  offset="1" style="stop-color:#643F99"/>
		</linearGradient>
		<path fill="url(#SVGID_1_)" d="M195.1,392.2c1.6,0,4.2,0,5.7,0h25.8c1.6,0,2.2-1.1,1.4-2.5l-12.9-22.4c-0.8-1.3-2.1-3.6-2.9-5
			L199.2,340c-0.8-1.3-2.1-1.3-2.9,0l-12.8,22.4c-0.8,1.3-2.1,3.6-2.9,5l-12.9,22.4c-0.8,1.3-0.2,2.5,1.4,2.5L195.1,392.2
			L195.1,392.2z"/>
		
			<linearGradient id="SVGID_2_" gradientUnits="userSpaceOnUse" x1="-5.332266e-06" y1="699.9996" x2="1" y2="699.9996" gradientTransform="matrix(60.9834 0 0 60.9834 234.9067 -42322.7617)">
			<stop  offset="0" style="stop-color:#48ADE2"/>
			<stop  offset="0.4765" style="stop-color:#47ACE1"/>
			<stop  offset="0.6481" style="stop-color:#46A7DE"/>
			<stop  offset="0.7705" style="stop-color:#43A0D9"/>
			<stop  offset="0.8694" style="stop-color:#4095D1"/>
			<stop  offset="0.9531" style="stop-color:#3C88C8"/>
			<stop  offset="1" style="stop-color:#397EC1"/>
		</linearGradient>
		<path fill="url(#SVGID_2_)" d="M262.5,392.2c1.6,0,4.2,0,5.7,0h25.9c1.6,0,2.2-1.1,1.4-2.5l-12.9-22.4c-0.8-1.3-2.1-3.6-2.9-5
			L266.7,340c-0.8-1.3-2.1-1.3-2.9,0l-12.9,22.4c-0.8,1.3-2.1,3.6-2.9,5l-12.9,22.4c-0.8,1.3-0.2,2.5,1.4,2.5H262.5z"/>
		
			<linearGradient id="SVGID_3_" gradientUnits="userSpaceOnUse" x1="9.914329e-04" y1="700.0005" x2="1.001" y2="700.0005" gradientTransform="matrix(70.5547 0 0 70.5547 196.3767 -49048.9922)">
			<stop  offset="0" style="stop-color:#BCD747"/>
			<stop  offset="0.2641" style="stop-color:#B9D647"/>
			<stop  offset="0.4625" style="stop-color:#B0D248"/>
			<stop  offset="0.6395" style="stop-color:#A1CD49"/>
			<stop  offset="0.8039" style="stop-color:#8AC64A"/>
			<stop  offset="0.9582" style="stop-color:#6ABE4B"/>
			<stop  offset="1" style="stop-color:#5EBB4C"/>
		</linearGradient>
		<path fill="url(#SVGID_3_)" d="M234.5,308.6c-1.6,0-4.2,0-5.7,0h-30.6c-1.6,0-2.2,1.1-1.4,2.5l15.3,26.5c0.8,1.3,2.1,3.6,2.9,5
			l15.3,26.5c0.8,1.3,2.1,1.3,2.9,0l15.3-26.5c0.8-1.3,2.1-3.6,2.9-5l15.3-26.5c0.8-1.3,0.2-2.5-1.4-2.5H234.5z"/>
	</g>
	<g>
		<g>
			<g>
				<path fill="#858585" d="M301.9,323h7.5l15.1,39.6l15.4-39.6h7.2v46.8h-5.6v-36.9l-14.7,36.9h-4.9l-14.4-36.8v36.8h-5.5
					L301.9,323L301.9,323z"/>
				<path fill="#858585" d="M369.2,370.9c-2.6,0-4.9-0.4-6.9-1.3c-2-0.9-3.7-2-5.1-3.5c-1.4-1.6-2.5-3.5-3.2-5.6
					c-0.7-2.2-1.1-4.7-1.1-7.5c0-2.7,0.4-5.3,1.2-7.5c0.8-2.2,1.9-4.2,3.4-5.7c1.4-1.6,3.2-2.8,5.3-3.6c2-0.9,4.3-1.3,6.8-1.3
					c2.5,0,4.8,0.4,6.8,1.3c2,0.9,3.8,2,5.2,3.6c1.4,1.6,2.5,3.5,3.2,5.6c0.7,2.2,1.1,4.6,1.1,7.5c0,2.8-0.4,5.3-1.2,7.5
					c-0.8,2.2-1.9,4.2-3.3,5.7s-3.1,2.8-5.3,3.6C374,370.5,371.8,370.9,369.2,370.9z M369.3,366.2c1.8,0,3.4-0.3,4.7-1
					c1.3-0.7,2.4-1.6,3.2-2.7c0.9-1.2,1.5-2.6,1.9-4.2s0.5-3.5,0.5-5.4s-0.2-3.7-0.5-5.3s-1-3-1.9-4.2c-0.9-1.2-2-2-3.2-2.7
					c-1.3-0.6-2.9-1-4.7-1c-1.8,0-3.4,0.3-4.6,1c-1.3,0.6-2.4,1.6-3.2,2.7c-0.9,1.2-1.5,2.6-1.9,4.2c-0.4,1.6-0.5,3.5-0.5,5.4
					s0.2,3.8,0.5,5.4c0.4,1.6,1,3,1.8,4.2c0.9,1.2,1.9,2.1,3.2,2.7C365.9,365.8,367.5,366.2,369.3,366.2z"/>
				<path fill="#858585" d="M392.1,336h5.6v5.2c1.6-2.2,3.5-3.8,5.5-4.8c2-0.9,4.2-1.4,6.4-1.4c3.8,0,6.7,1,8.5,3.1
					c1.9,2.1,2.8,5.2,2.8,9.3v22.6h-5.7v-21.5c0-3.1-0.5-5.3-1.7-6.7c-1.2-1.3-2.9-2-5.3-2c-1.3,0-2.5,0.2-3.8,0.6
					c-1.3,0.5-2.4,1.2-3.4,2.1c-1.1,0.9-2,2-2.5,3.1s-0.9,2.4-0.9,4.2v20.1H392L392.1,336L392.1,336z"/>
				<path fill="#858585" d="M458.8,360.4c-0.5,3.3-2,5.9-4.4,7.8c-2.4,1.9-5.7,2.8-10,2.8c-5.2,0-9.1-1.6-11.8-4.7
					c-2.7-3.1-4.2-7.5-4.2-13.1c0-2.9,0.4-5.6,1.2-7.8c0.8-2.3,1.9-4.2,3.3-5.7c1.4-1.6,3.1-2.7,5.1-3.5c2-0.8,4.1-1.2,6.4-1.2
					c2.6,0,4.9,0.4,6.7,1.3c1.9,0.9,3.5,2,4.6,3.5c1.2,1.5,2.1,3.2,2.7,5.3c0.6,2,0.9,4.2,0.9,6.7v2.9h-25.2c0,1.7,0.2,3.3,0.7,4.8
					c0.5,1.5,1.1,2.7,2,3.8c0.9,1.1,1.9,1.9,3.2,2.5c1.3,0.6,2.7,0.9,4.4,0.9c2.8,0,4.9-0.5,6.2-1.6c1.3-1.1,2.2-2.5,2.7-4.4h5.6
					V360.4z M453.6,350.1c0-1.6-0.2-3.1-0.5-4.4c-0.3-1.3-0.9-2.4-1.6-3.4c-0.7-0.9-1.7-1.6-2.9-2.2s-2.6-0.8-4.2-0.8
					c-3,0-5.3,0.9-7.1,2.7c-1.6,1.8-2.7,4.5-3,8H453.6L453.6,350.1z"/>
				<path fill="#858585" d="M466.7,377.1c1.3,0.5,2.4,0.6,3.7,0.6c1.4,0,2.5-0.4,3.2-1.1c0.8-0.7,1.5-2,2.3-4l1.4-3.6L463,335.9h6.7
					l10.7,26.7l9.8-26.7h6.3l-14.8,37.2c-0.6,1.6-1.3,2.9-1.8,4c-0.6,1.2-1.3,2.1-2,3c-0.7,0.9-1.6,1.5-2.7,1.9
					c-1,0.4-2.3,0.6-3.8,0.6c-1,0-2-0.1-2.8-0.2c-0.9-0.2-1.7-0.4-2.7-0.7L466.7,377.1z"/>
				<path fill="#858585" d="M522.5,345.8H540v18.7c-1.2,1.1-2.5,2-3.9,2.8c-1.4,0.8-2.9,1.5-4.5,2c-1.6,0.5-3.1,0.9-4.8,1.2
					s-3.2,0.4-4.8,0.4c-3.5,0-6.5-0.5-9.3-1.6c-2.7-1.1-4.9-2.7-6.8-4.8c-1.9-2.1-3.3-4.7-4.2-7.7c-0.9-3.1-1.4-6.5-1.4-10.4
					c0-3.9,0.5-7.5,1.6-10.5c1-3.1,2.5-5.6,4.4-7.8c1.9-2.1,4.1-3.7,6.7-4.8c2.6-1.1,5.4-1.6,8.5-1.6c2.6,0,4.9,0.3,7,0.9
					c2,0.6,3.8,1.6,5.2,2.7c1.4,1.2,2.6,2.6,3.5,4.2c0.9,1.6,1.6,3.5,2.1,5.5l-5.8,1c-0.3-1.3-0.8-2.6-1.4-3.8
					c-0.6-1.1-1.3-2.1-2.3-2.9s-2-1.4-3.4-1.9c-1.3-0.5-3-0.6-4.8-0.6c-2.4,0-4.6,0.5-6.4,1.4c-1.8,0.9-3.4,2.3-4.6,4
					c-1.3,1.7-2.1,3.8-2.8,6.1c-0.6,2.4-0.9,5-0.9,7.9c0,2.9,0.3,5.5,0.9,7.9c0.6,2.4,1.6,4.4,2.8,6.1s2.9,3,4.8,3.9
					c2,0.9,4.2,1.4,6.8,1.4c2.4,0,4.5-0.3,6.7-0.9c2-0.5,3.9-1.5,5.6-2.7v-11.2h-11.8L522.5,345.8L522.5,345.8z"/>
				<path fill="#858585" d="M548,336h5.7v21.4c0,3.1,0.5,5.4,1.6,6.7c1,1.3,2.7,2,5,2c2.5,0,4.9-0.9,6.9-2.7c1.1-0.9,2-2,2.5-3.1
					c0.5-1.1,0.9-2.4,0.9-4.2V336h5.7v34h-5.6v-5.3c-1.6,2.2-3.5,3.8-5.4,4.8c-2,1-4,1.5-6.2,1.5c-3.8,0-6.7-1-8.4-3.1
					c-1.7-2-2.6-5.2-2.6-9.3L548,336L548,336z"/>
				<path fill="#858585" d="M584.9,323h6.1v6.7h-6.1V323z M585.2,336h5.7v34h-5.7V336z"/>
				<path fill="#858585" d="M624.5,365c-1.4,1.9-3,3.4-4.9,4.4c-1.8,1-4,1.6-6.5,1.6c-2.5,0-4.6-0.5-6.4-1.4
					c-1.8-0.9-3.3-2.2-4.5-3.8c-1.2-1.6-2-3.5-2.6-5.6c-0.5-2.2-0.9-4.5-0.9-7.1c0-2.8,0.3-5.3,1-7.6c0.7-2.3,1.7-4.2,3-5.7
					s2.9-2.7,4.7-3.6c1.9-0.9,4-1.3,6.4-1.3c1.8,0,3.6,0.4,5.4,1.1c1.8,0.7,3.5,2.1,5.1,4.1v-17.1h5.7v46.8h-5.6V365z M624.5,352
					c0-2.7-0.3-4.9-0.9-6.4c-0.6-1.5-1.6-2.8-2.9-3.8c-0.9-0.8-2-1.3-2.9-1.6c-1-0.3-2-0.5-3.2-0.5c-1.4,0-2.7,0.2-3.9,0.7
					c-1.2,0.5-2.3,1.3-3.1,2.4c-0.9,1.1-1.6,2.4-2.1,4.2c-0.5,1.7-0.8,3.8-0.8,6.1c0,2.5,0.2,4.6,0.8,6.4c0.5,1.7,1.3,3.1,2.2,4.1
					c0.9,1,1.9,1.7,3,2.2c1.1,0.5,2.3,0.6,3.5,0.6c1.3,0,2.4-0.2,3.5-0.5c1-0.3,2-0.9,3-1.6c1.3-1,2.3-2.4,3-3.9s1-3.6,1-6V352z"/>
				<path fill="#858585" d="M668.2,360.4c-0.5,3.3-2,5.9-4.4,7.8c-2.4,1.9-5.7,2.8-10,2.8c-5.2,0-9.1-1.6-11.8-4.7
					c-2.7-3.1-4.2-7.5-4.2-13.1c0-2.9,0.4-5.6,1.2-7.8s1.9-4.2,3.3-5.7c1.4-1.6,3.1-2.7,5.1-3.5c2-0.8,4.1-1.2,6.4-1.2
					c2.6,0,4.9,0.4,6.7,1.3c1.9,0.9,3.5,2,4.6,3.5c1.2,1.5,2.1,3.2,2.7,5.3c0.6,2,0.9,4.2,0.9,6.7v2.9h-25.2c0,1.7,0.2,3.3,0.7,4.8
					c0.5,1.5,1.1,2.7,2,3.8c0.9,1.1,1.9,1.9,3.2,2.5c1.3,0.6,2.7,0.9,4.4,0.9c2.8,0,4.9-0.5,6.2-1.6c1.3-1.1,2.2-2.5,2.7-4.4h5.6
					V360.4z M663.1,350.1c0-1.6-0.2-3.1-0.5-4.4c-0.3-1.3-0.9-2.4-1.6-3.4c-0.7-0.9-1.7-1.6-2.9-2.2s-2.6-0.8-4.2-0.8
					c-3,0-5.3,0.9-7.1,2.7c-1.6,1.8-2.7,4.5-3,8H663.1L663.1,350.1z"/>
			</g>
		</g>
		<g>
			<g>
				
					<linearGradient id="SVGID_4_" gradientUnits="userSpaceOnUse" x1="848.8693" y1="317.3204" x2="977.7023" y2="277.3583" gradientTransform="matrix(0.7843 0 0 -0.7843 -5.602496e-06 588.4314)">
					<stop  offset="0" style="stop-color:#BBD647"/>
					<stop  offset="0.2657" style="stop-color:#B8D548"/>
					<stop  offset="0.4653" style="stop-color:#AFD248"/>
					<stop  offset="0.6433" style="stop-color:#9FCC49"/>
					<stop  offset="0.8086" style="stop-color:#88C54B"/>
					<stop  offset="0.9639" style="stop-color:#68BC4C"/>
					<stop  offset="1" style="stop-color:#5EBA4C"/>
				</linearGradient>
				<path fill="url(#SVGID_4_)" d="M676.5,322.7h15.7c3.5,0,6.3,0.4,8.5,1.1c2.3,0.7,4,1.7,5.3,3c1.3,1.3,2.2,2.7,2.7,4.4
					c0.5,1.6,0.8,3.5,0.8,5.3c0,2-0.2,3.8-0.8,5.6c-0.5,1.8-1.4,3.4-2.7,4.7c-1.3,1.3-3.1,2.4-5.3,3.2c-2.3,0.8-5,1.2-8.5,1.2h-9.7
					v18.2h-6L676.5,322.7L676.5,322.7z M692.1,346.2c2.3,0,4.2-0.2,5.6-0.6c1.5-0.5,2.7-1.1,3.5-1.9c0.9-0.9,1.4-1.8,1.7-3
					c0.3-1.2,0.5-2.4,0.5-3.9s-0.2-2.8-0.5-3.9c-0.3-1.1-0.9-2-1.8-2.8c-0.9-0.7-2-1.3-3.5-1.6c-1.5-0.4-3.3-0.5-5.5-0.5h-9.6v18.4
					L692.1,346.2L692.1,346.2z"/>
				
					<linearGradient id="SVGID_5_" gradientUnits="userSpaceOnUse" x1="850.8591" y1="323.7354" x2="979.6921" y2="283.7733" gradientTransform="matrix(0.7843 0 0 -0.7843 -5.602496e-06 588.4314)">
					<stop  offset="0" style="stop-color:#BBD647"/>
					<stop  offset="0.2657" style="stop-color:#B8D548"/>
					<stop  offset="0.4653" style="stop-color:#AFD248"/>
					<stop  offset="0.6433" style="stop-color:#9FCC49"/>
					<stop  offset="0.8086" style="stop-color:#88C54B"/>
					<stop  offset="0.9639" style="stop-color:#68BC4C"/>
					<stop  offset="1" style="stop-color:#5EBA4C"/>
				</linearGradient>
				<path fill="url(#SVGID_5_)" d="M716.1,335.6h5.6v5.3c1.3-1.9,2.7-3.3,4.5-4.3c1.7-1,3.5-1.5,5.4-1.5c1.2,0,2.2,0.1,3,0.2
					l-0.7,5.3c-0.5-0.1-0.9-0.2-1.3-0.2c-0.5-0.1-0.9-0.1-1.4-0.1c-1,0-2.1,0.2-3.2,0.5c-1.1,0.4-2.1,1-3.1,1.9
					c-0.9,0.9-1.7,1.8-2.3,2.9c-0.5,1.1-0.8,2.4-0.8,3.8v20.2h-5.7V335.6z"/>
				
					<linearGradient id="SVGID_6_" gradientUnits="userSpaceOnUse" x1="853.9554" y1="333.7177" x2="982.7885" y2="293.7556" gradientTransform="matrix(0.7843 0 0 -0.7843 -5.602496e-06 588.4314)">
					<stop  offset="0" style="stop-color:#BBD647"/>
					<stop  offset="0.2657" style="stop-color:#B8D548"/>
					<stop  offset="0.4653" style="stop-color:#AFD248"/>
					<stop  offset="0.6433" style="stop-color:#9FCC49"/>
					<stop  offset="0.8086" style="stop-color:#88C54B"/>
					<stop  offset="0.9639" style="stop-color:#68BC4C"/>
					<stop  offset="1" style="stop-color:#5EBA4C"/>
				</linearGradient>
				<path fill="url(#SVGID_6_)" d="M753.2,370.5c-2.6,0-4.9-0.4-6.9-1.3c-2-0.9-3.7-2-5.1-3.5c-1.4-1.6-2.5-3.4-3.2-5.6
					c-0.7-2.2-1.1-4.7-1.1-7.5c0-2.7,0.4-5.3,1.2-7.5c0.8-2.2,1.9-4.2,3.4-5.7c1.4-1.6,3.2-2.8,5.2-3.6c2-0.9,4.3-1.3,6.8-1.3
					s4.8,0.4,6.8,1.3c2,0.9,3.8,2,5.2,3.6c1.4,1.6,2.5,3.5,3.2,5.6c0.7,2.2,1.1,4.6,1.1,7.5c0,2.8-0.4,5.3-1.2,7.5s-1.9,4.2-3.3,5.7
					c-1.4,1.6-3.1,2.8-5.2,3.6C758,370.2,755.8,370.5,753.2,370.5z M753.3,365.8c1.8,0,3.4-0.3,4.7-1c1.3-0.6,2.4-1.6,3.2-2.7
					c0.9-1.2,1.5-2.6,1.9-4.2s0.5-3.5,0.5-5.4s-0.2-3.7-0.5-5.3c-0.4-1.6-1-3-1.9-4.2c-0.9-1.2-2-2-3.2-2.7c-1.3-0.6-2.9-1-4.7-1
					c-1.8,0-3.4,0.3-4.6,1c-1.3,0.6-2.4,1.6-3.2,2.7c-0.9,1.2-1.5,2.5-1.9,4.2c-0.4,1.6-0.5,3.4-0.5,5.4c0,2,0.2,3.8,0.5,5.4
					s1,3,1.8,4.2c0.9,1.2,1.9,2.1,3.2,2.7C749.9,365.5,751.5,365.8,753.3,365.8z"/>
			</g>
			
				<linearGradient id="SVGID_7_" gradientUnits="userSpaceOnUse" x1="867.5359" y1="374.7502" x2="996.369" y2="334.7881" gradientTransform="matrix(0.7843 0 0 -0.7843 -5.602496e-06 588.4314)">
				<stop  offset="0" style="stop-color:#BBD647"/>
				<stop  offset="0.2657" style="stop-color:#B8D548"/>
				<stop  offset="0.4653" style="stop-color:#AFD248"/>
				<stop  offset="0.6433" style="stop-color:#9FCC49"/>
				<stop  offset="0.8086" style="stop-color:#88C54B"/>
				<stop  offset="0.9639" style="stop-color:#68BC4C"/>
				<stop  offset="1" style="stop-color:#5EBA4C"/>
			</linearGradient>
			<path fill="url(#SVGID_7_)" d="M778,331.5V324h-2.7v-1.3h6.9v1.3h-2.7v7.5H778z M783.7,331.5v-8.7h2.4l2.4,6.4l2.4-6.4h2.4v8.7
				h-1.6v-7.2l-2.7,7.2h-1l-2.7-7.2v7.2H783.7z"/>
		</g>
	</g>
</g>
</svg>
